# xmcd
#
# Track frame offsets:
#	150
#	7425
#	20400
#	45675
#	67725
#	82350
#	107100
#	127425
#	144975
#	165900
#
# Disc length: 2391 seconds
#
# Revision: 0
# Processed by: cddbd v1.5.2PL0 Copyright (c) Steve Scherf et al.
# Submitted via: EasyCDDAExtractor 9.0.0.1
#
DISCID=8b09550a
DTITLE=Ozzy Osbourne - Long Beach Arena Long Beach 17-06-82 Disc 2
DYEAR=1982
DGENRE=Hard Rock
TTITLE0=Drum Solo
TTITLE1=Keyboard Solo
TTITLE2=Goodbye To Romance
TTITLE3=I Don't Know
TTITLE4=No Bone Movies
TTITLE5=Believer
TTITLE6=Flying High Again
TTITLE7=Iron Man
TTITLE8=Children Of The Grave
TTITLE9=Paranoid
EXTD=
EXTT0=
EXTT1=
EXTT2=
EXTT3=
EXTT4=
EXTT5=
EXTT6=
EXTT7=
EXTT8=
EXTT9=
PLAYORDER=
